<svg width="546" height="91" viewBox="0 0 546 91" fill="none" xmlns="http://www.w3.org/2000/svg">
<g clip-path="url(#clip0_342_9)">
<path fill-rule="evenodd" clip-rule="evenodd" d="M503.686 83.457C497.435 88.75 490.11 91.374 481.775 91.374C462.319 91.374 447.441 75.352 447.441 56.154C447.441 37.034 462.346 20.76 481.775 20.76C490.178 20.76 497.486 23.523 503.686 28.958V21.926H518.314V90.339H503.686V83.457ZM482.855 35.258C471.371 35.258 462.068 44.59 462.068 56.067C462.068 67.626 471.291 76.876 482.855 76.876C494.551 76.876 503.459 67.623 503.403 55.989C503.348 44.504 494.419 35.258 482.855 35.258Z" fill="#3A3E41"/>
<path fill-rule="evenodd" clip-rule="evenodd" d="M269.573 56.153C269.573 65.914 266.068 74.259 259.131 81.132C252.218 87.979 243.833 91.373 234.115 91.373C224.386 91.373 215.997 87.986 209.077 81.132C202.142 74.263 198.699 65.903 198.699 56.153C198.699 46.409 202.186 38.087 209.073 31.199C215.99 24.284 224.33 20.759 234.115 20.759C243.89 20.759 252.219 24.297 259.133 31.199C266.024 38.08 269.573 46.407 269.573 56.153ZM254.944 56.067C254.944 50.331 252.839 45.484 248.795 41.429C244.736 37.359 239.865 35.258 234.115 35.258C228.352 35.258 223.479 37.351 219.412 41.429C215.372 45.478 213.327 50.342 213.327 56.067C213.327 61.811 215.355 66.702 219.412 70.771C223.475 74.843 228.362 76.876 234.115 76.876C239.856 76.876 244.74 74.835 248.795 70.771C252.856 66.699 254.944 61.823 254.944 56.067Z" fill="#3A3E41"/>
<path fill-rule="evenodd" clip-rule="evenodd" d="M442.912 74.622C439.597 79.721 435.348 83.906 430.027 86.883C424.664 89.884 418.868 91.374 412.728 91.374C403.01 91.374 394.62 87.986 387.71 81.133C380.788 74.264 377.356 65.893 377.356 56.154C377.356 46.419 380.83 38.088 387.709 31.2C394.613 24.285 402.954 20.76 412.729 20.76C418.893 20.76 424.663 22.358 430.03 25.382C435.31 28.359 439.587 32.438 442.911 37.51L443.368 38.206L431.089 46.27L430.63 45.577C426.361 39.111 420.585 35.259 412.73 35.259C406.985 35.259 402.12 37.36 398.072 41.428C394.037 45.485 391.985 50.341 391.985 56.068C391.985 61.812 394.02 66.7 398.072 70.772C402.114 74.836 406.996 76.877 412.73 76.877C420.585 76.877 426.361 73.022 430.63 66.559L431.089 65.865L443.365 73.929L442.912 74.622Z" fill="#3A3E41"/>
<path d="M366.67 21.925H352.041V90.338H366.67V21.925Z" fill="#3A3E41"/>
<path fill-rule="evenodd" clip-rule="evenodd" d="M293.267 27.171C298.295 22.972 304.141 20.759 310.836 20.759C327.169 20.759 338.626 35.125 338.626 50.795V90.338H323.999V50.688C323.999 42.285 316.934 35.258 308.512 35.258C300.12 35.258 293.267 42.315 293.267 50.688V90.338H278.64V21.925H293.267V27.171Z" fill="#3A3E41"/>
<path fill-rule="evenodd" clip-rule="evenodd" d="M194.718 74.622C191.403 79.721 187.154 83.906 181.832 86.883C176.471 89.884 170.675 91.374 164.535 91.374C154.817 91.374 146.425 87.986 139.517 81.133C132.595 74.264 129.163 65.893 129.163 56.154C129.163 46.419 132.637 38.088 139.516 31.2C146.418 24.285 154.761 20.76 164.536 20.76C170.7 20.76 176.47 22.358 181.837 25.382C187.115 28.359 191.394 32.438 194.718 37.51L195.173 38.206L182.896 46.27L182.437 45.577C178.168 39.111 172.392 35.259 164.537 35.259C158.792 35.259 153.925 37.36 149.879 41.428C145.844 45.485 143.792 50.341 143.792 56.068C143.792 61.812 145.827 66.7 149.879 70.772C153.921 74.836 158.803 76.877 164.537 76.877C172.392 76.877 178.167 73.022 182.437 66.559L182.896 65.865L195.172 73.929L194.718 74.622Z" fill="#3A3E41"/>
<path fill-rule="evenodd" clip-rule="evenodd" d="M105.465 26.692C110.628 22.264 116.055 20.759 122.745 20.759V35.41C113.532 35.41 105.465 41.016 105.465 50.796V90.339H90.8359V21.926H105.465V26.692Z" fill="#3A3E41"/>
<path fill-rule="evenodd" clip-rule="evenodd" d="M41.386 18.991C27.552 56.793 26.258 60.598 15.315 90.338H0L32.637 0.28302H50.2L83.013 90.338H67.373C54.919 56.376 57.097 62.105 41.386 18.991Z" fill="#3A3E41"/>
<path fill-rule="evenodd" clip-rule="evenodd" d="M75.7671 74.138H31.8781L26.5571 59.64H70.4461L75.7671 74.138Z" fill="#3A3E41"/>
<path d="M366.67 0.296021H352.041V14.781H366.67V0.296021Z" fill="#3A3E41"/>
<path d="M530.293 16.13H532.279V12.519H534.402L536.992 16.13H539.366L536.552 12.188C537.985 11.775 538.979 10.727 538.979 9.04303C538.979 8.08003 538.675 7.336 538.125 6.811C537.408 6.094 536.333 5.68201 534.953 5.68201H530.294L530.293 16.13ZM541.051 4.44403C539.327 2.71803 536.937 1.64801 534.302 1.64801C531.666 1.64801 529.278 2.71803 527.554 4.44403L527.55 4.44601C525.826 6.17001 524.756 8.56001 524.756 11.195C524.756 13.831 525.825 16.221 527.55 17.944L527.554 17.947C529.278 19.671 531.666 20.741 534.302 20.741C536.937 20.741 539.327 19.671 541.051 17.947L541.055 17.944C542.779 16.221 543.849 13.832 543.849 11.195C543.849 8.56001 542.78 6.17001 541.055 4.44601L541.051 4.44403ZM534.302 0.286011C537.31 0.286011 540.038 1.50802 542.013 3.48102L542.017 3.48401C543.991 5.45901 545.211 8.18701 545.211 11.195C545.211 14.204 543.991 16.932 542.017 18.905L542.013 18.908C540.039 20.883 537.31 22.102 534.302 22.102C531.293 22.102 528.566 20.883 526.592 18.908L526.588 18.905C524.614 16.932 523.394 14.204 523.394 11.195C523.394 8.18701 524.614 5.45901 526.588 3.48401L526.592 3.48102C528.567 1.50802 531.293 0.286011 534.302 0.286011ZM532.279 10.781V7.47202H534.869C536.165 7.47202 536.937 8.05103 536.937 9.09903C536.937 10.147 536.166 10.781 534.869 10.781H532.279Z" fill="#3A3E41"/>
</g>
<defs>
<clipPath id="clip0_342_9">
<rect width="546" height="91" fill="white"/>
</clipPath>
</defs>
</svg>
